<svg width="226" height="226" viewBox="0 0 226 226" fill="none" xmlns="http://www.w3.org/2000/svg"><path fill-rule="evenodd" clip-rule="evenodd" d="M202.741 64.7591C206.57 70.5032 205.018 78.2641 199.274 82.0935C197.915 82.9993 196.493 83.8039 195.537 84.3445C195.395 84.4247 195.264 84.4991 195.144 84.5671C194.041 85.1954 193.477 85.5446 193.055 85.858C187.512 89.9732 179.683 88.8158 175.567 83.2729C171.452 77.73 172.61 69.9005 178.152 65.7853C179.888 64.4966 181.597 63.512 182.775 62.8417C182.958 62.737 183.129 62.6399 183.289 62.5493C184.305 61.9718 184.861 61.6561 185.406 61.2922C191.151 57.4628 198.911 59.015 202.741 64.7591Z" fill="white"></path><path fill-rule="evenodd" clip-rule="evenodd" d="M191.486 120.311C190.828 120.316 190.065 120.323 189.153 120.323C182.25 120.323 176.653 114.726 176.653 107.823C176.653 100.919 182.25 95.3226 189.153 95.3226C189.471 95.3226 189.85 95.318 190.28 95.3127C192.414 95.2867 195.784 95.2456 198.945 95.6815C199.317 95.7329 199.692 95.7885 199.995 95.8335C200.033 95.8392 200.071 95.8447 200.107 95.8501C200.455 95.9017 200.723 95.9407 200.971 95.9736C201.213 96.0057 201.388 96.0254 201.52 96.0374C201.583 96.0432 201.63 96.0466 201.663 96.0486C201.696 96.0506 201.711 96.0509 201.71 96.0509C202.786 96.0753 203.84 96.142 204.606 96.1904C204.705 96.1966 204.798 96.2026 204.887 96.2081C205.765 96.2627 206.313 96.2893 206.797 96.2893C213.7 96.2893 219.297 101.886 219.297 108.789C219.297 115.693 213.7 121.289 206.797 121.289C205.464 121.289 204.234 121.216 203.335 121.16C203.237 121.154 203.142 121.148 203.051 121.142C202.218 121.09 201.684 121.057 201.142 121.044C199.152 120.999 196.899 120.655 195.914 120.505C195.746 120.479 195.615 120.459 195.529 120.447C194.376 120.288 193.357 120.296 191.486 120.311Z" fill="white"></path><path fill-rule="evenodd" clip-rule="evenodd" d="M170.966 132.317C174.809 126.582 182.573 125.049 188.308 128.892C188.386 128.944 188.553 129.05 188.787 129.197C189.756 129.81 191.875 131.149 193.547 132.42C193.605 132.454 193.668 132.491 193.732 132.529C194.053 132.722 194.813 133.185 195.637 133.851C196.335 134.417 198.037 135.874 199.266 138.331C202.353 144.506 199.85 152.014 193.675 155.101C189.045 157.417 183.664 156.588 179.961 153.425C179.862 153.363 179.754 153.294 179.642 153.22C179.348 153.025 178.908 152.721 178.415 152.318C177.914 151.908 177.592 151.709 176.976 151.327C176.44 150.995 175.683 150.525 174.391 149.66C168.656 145.817 167.123 138.052 170.966 132.317Z" fill="white"></path><path fill-rule="evenodd" clip-rule="evenodd" d="M19.8974 54.4983C22.0805 47.949 29.1595 44.4095 35.7088 46.5926C40.0093 48.0261 43.3998 50.915 45.1229 52.4364C46.0165 53.2255 46.8817 54.0406 47.5446 54.6652C47.6305 54.7462 47.7131 54.824 47.7919 54.8981C48.585 55.6442 48.998 56.0198 49.2662 56.2403C54.5987 60.6248 55.3672 68.502 50.9827 73.8345C46.5982 79.1669 38.7211 79.9355 33.3886 75.551C32.3764 74.7187 31.3755 73.7783 30.6622 73.1072C30.5737 73.0241 30.4876 72.943 30.4034 72.8637C29.7069 72.2081 29.1473 71.6812 28.5757 71.1765C27.9605 70.6333 27.5419 70.3058 27.2739 70.1202C21.065 67.7408 17.7739 60.869 19.8974 54.4983ZM27.1153 70.0172C27.1153 70.0169 27.1241 70.0218 27.142 70.0328C27.1243 70.023 27.1154 70.0175 27.1153 70.0172Z" fill="white"></path><path fill-rule="evenodd" clip-rule="evenodd" d="M4.95227 99.3057C4.95227 92.4021 10.5487 86.8057 17.4523 86.8057C20.3547 86.8057 23.4437 87.5176 24.5681 87.7768C24.7094 87.8093 24.8197 87.8348 24.8947 87.8507C26.3036 88.1505 27.8945 88.3076 30.2734 88.4903C30.4701 88.5054 30.6744 88.5208 30.8858 88.5368C32.9697 88.6938 35.7321 88.902 38.5061 89.3844C45.3075 90.5673 49.8623 97.0399 48.6794 103.841C47.4966 110.643 41.024 115.198 34.2225 114.015C32.6959 113.749 31.1122 113.628 28.7656 113.448C28.6324 113.438 28.4968 113.428 28.3586 113.417C26.0277 113.238 22.9174 112.99 19.692 112.303C19.4173 112.245 19.0677 112.168 18.786 112.106C18.6502 112.076 18.5301 112.05 18.4418 112.031C18.0819 111.952 17.8213 111.899 17.6032 111.858C17.4386 111.828 17.3333 111.812 17.2781 111.804C10.4548 111.711 4.95227 106.151 4.95227 99.3057Z" fill="white"></path><path fill-rule="evenodd" clip-rule="evenodd" d="M51.351 134.597C54.1313 140.916 51.2627 148.292 44.9438 151.072C43.1557 151.859 41.1302 152.696 38.9283 153.423C38.6098 153.618 38.2465 153.825 37.8496 154.024C36.506 154.696 34.4093 155.476 31.756 155.476C24.8524 155.476 19.256 149.879 19.256 142.976C19.256 137.941 22.2324 133.602 26.5215 131.621C26.8464 131.415 27.2492 131.177 27.7188 130.937C28.3687 130.606 29.2032 130.244 30.2036 129.958C31.5556 129.572 33.0437 128.995 34.8753 128.189C41.1942 125.409 48.5706 128.278 51.351 134.597Z" fill="white"></path><path d="M80.1435 169.522C84.118 172.905 90.1092 173.09 95.0035 173.519C101.796 174.115 108.647 173.116 115.455 173.108C119.654 173.103 123.968 172.584 128.103 171.89C129.45 171.664 130.692 171.164 132.04 170.986C133.891 170.742 135.636 170.282 137.441 169.868L137.695 169.81L137.696 169.809C141.091 169.031 144.453 168.26 147.79 167.346C149.697 166.824 151.25 165.87 152.961 164.934L152.998 164.914C154.29 164.207 155.638 163.47 156.606 162.339C158.329 160.325 159.453 158.028 160.319 155.611C163.379 148.663 166.073 132.861 167.619 126.505C168.807 121.623 169.375 116.119 169.81 111.116C170.215 106.46 171.383 101.687 171.383 97.0162C171.383 90.8048 172.286 84.6195 172.286 78.383C172.286 71.4577 172.44 64.3662 172.871 57.4584C173.034 54.8594 172.82 52.2332 172.888 49.6304C172.926 48.1823 173.665 46.4514 173.474 45.1143C173.157 42.8983 172.629 40.7374 172.587 38.4907C172.559 37.0259 172.33 34.7603 171.834 33.3724C170.593 29.8955 168.711 27.9161 166.415 25.1096C165.026 23.4125 161.699 21.6305 159.49 21.6305C157.54 21.6305 154.75 20.6421 152.85 21.6974C151.496 22.4496 148.984 25.1136 148.802 26.7488C148.636 28.2439 147.899 29.7308 147.899 31.2649C147.899 33.2175 147.497 35.3859 147.063 37.2864C146.307 40.5942 146.093 44.1224 146.093 47.5229C146.093 50.2379 145.49 53.0042 145.49 55.7188L145.075 67.8941L143.57 67.0054C141.445 65.8158 138.795 65.4768 136.516 64.6233C134.791 63.977 132.22 64.0737 130.474 64.5344C127.968 65.1961 125.888 66.6429 123.677 67.8941C122.462 68.5811 122.917 69.0298 122.149 70.0871C120.602 67.0171 118.978 64.162 116.481 61.8255C114.115 59.6117 111.642 57.7594 108.435 56.9316C104.581 55.9366 100.517 56.697 97.1707 58.8586C95.0499 60.2288 91.607 62.9674 90.0241 64.9432C90.0245 63.244 89.9367 61.5595 89.6402 59.9618C88.3774 53.1572 87.5043 46.1218 86.9881 39.2281C86.6137 34.2277 85.521 29.7544 83.8832 25.0556C83.0056 22.5377 82.6985 18.6322 80.6457 16.7256C79.8759 16.0106 79.5787 15.1018 78.5636 14.6325C77.803 14.2809 77.2458 13.6842 76.3998 13.61C74.0877 13.4073 71.9656 13.555 69.7854 14.1812C67.2504 14.9094 65.9944 17.4736 64.1302 19.0372C62.9843 19.9983 62.8923 21.9131 62.2137 23.1555C61.5165 24.4321 61.2005 25.933 60.8542 27.3472C60.0767 30.5227 59.9812 33.6449 59.8089 36.8938C59.6493 39.9033 59.2108 43.1181 59.4894 46.1244C59.7169 48.5797 59.606 51.0523 60.0178 53.5066C60.3564 55.5253 59.998 57.4591 60.144 59.4696C60.3174 61.8588 60.4852 64.2745 60.4928 66.6646C60.4993 68.6833 60.8092 70.7375 60.6327 72.7513C60.3931 75.4834 60.7277 78.5206 60.9404 81.2531C61.1222 83.5889 61.084 86.0476 61.4204 88.3494C61.7636 90.6983 61.754 93.1496 61.8939 95.5186C62.0608 98.342 62.921 101.627 62.7155 104.445C61.4161 105.033 58.5809 106.569 57.3272 107.283C56.3652 107.832 55.1536 108.54 54.5397 109.464C53.3544 111.246 54.0525 113.367 54.026 115.322C54.0132 116.27 54.2507 118.281 54.8001 119.064C55.6247 120.237 55.6383 122.36 56.1559 123.714C56.7196 125.188 56.791 126.71 57.3522 128.228C58.2161 130.564 58.6902 133.22 59.2979 135.648C61.7118 145.297 66.1729 154.164 72.4209 162.06C74.7515 165.006 77.3027 167.104 80.1435 169.522Z" fill="#FF6575"></path><path fill-rule="evenodd" clip-rule="evenodd" d="M164.143 142.58C163.802 144.065 163.448 145.54 163.083 146.96C162.802 148.056 162.514 149.121 162.22 150.133C162.18 150.27 162.141 150.406 162.101 150.541C161.526 152.486 160.93 154.225 160.319 155.611C159.811 157.029 159.214 158.406 158.459 159.709C157.928 160.626 157.318 161.507 156.606 162.339C155.638 163.47 154.29 164.207 152.998 164.914L152.961 164.934C152.715 165.069 152.471 165.204 152.23 165.339C150.795 166.136 149.422 166.9 147.79 167.346C144.453 168.26 141.091 169.031 137.696 169.809L137.695 169.81L137.441 169.868C137.078 169.951 136.719 170.036 136.36 170.121C134.931 170.458 133.519 170.791 132.04 170.986C131.316 171.082 130.623 171.27 129.927 171.459C129.328 171.622 128.726 171.786 128.103 171.89C123.968 172.584 119.654 173.103 115.455 173.108C112.847 173.111 110.232 173.26 107.617 173.408C103.406 173.648 99.1938 173.887 95.0035 173.519C94.5616 173.481 94.1108 173.444 93.6533 173.407C89.0438 173.031 83.7592 172.6 80.1434 169.522C79.9539 169.361 79.7656 169.201 79.5786 169.042C76.9632 166.82 74.596 164.809 72.4209 162.06C66.1729 154.164 61.7118 145.297 59.2978 135.648C59.124 134.954 58.9612 134.24 58.797 133.521C58.3871 131.727 57.969 129.896 57.3522 128.228C57.0749 127.478 56.9172 126.727 56.7606 125.981C56.6003 125.217 56.4411 124.459 56.1559 123.714C55.9508 123.178 55.8248 122.52 55.6962 121.849C55.5002 120.827 55.298 119.772 54.8001 119.064C54.2506 118.281 54.0132 116.27 54.026 115.322C54.0333 114.78 53.9851 114.226 53.9367 113.67C53.8103 112.218 53.6826 110.753 54.5397 109.464C55.1536 108.54 56.3652 107.832 57.3272 107.283C58.5809 106.569 61.4161 105.033 62.7155 104.445C62.8417 102.714 62.5657 100.806 62.2954 98.938C62.1257 97.765 61.9583 96.6075 61.8939 95.5186C61.8519 94.8081 61.8234 94.0903 61.7948 93.3701C61.728 91.6886 61.6606 89.9939 61.4203 88.3494C61.2089 86.9025 61.1455 85.3936 61.0824 83.8922C61.0451 83.0051 61.0079 82.1206 60.9404 81.2531C60.9085 80.8442 60.874 80.4286 60.839 80.0081C60.6404 77.6185 60.4289 75.0746 60.6326 72.7513C60.7415 71.5102 60.6655 70.2537 60.5896 68.9996C60.5424 68.2189 60.4953 67.4392 60.4928 66.6646C60.4851 64.2745 60.3173 61.8588 60.1439 59.4696C60.0826 58.6252 60.1103 57.7942 60.1379 56.9649C60.1761 55.8196 60.2141 54.6774 60.0177 53.5066C59.7679 52.0172 59.7105 50.521 59.6531 49.0261C59.6159 48.0577 59.5788 47.0897 59.4893 46.1244C59.2868 43.9383 59.4634 41.6421 59.6362 39.3947C59.701 38.5514 59.7653 37.715 59.8089 36.8938C59.825 36.5888 59.8405 36.285 59.856 35.9821C60.0051 33.0582 60.1497 30.2246 60.8542 27.3472C60.8905 27.1987 60.9265 27.0493 60.9627 26.8993C61.271 25.6203 61.5897 24.2981 62.2137 23.1555C62.4652 22.695 62.6362 22.1421 62.8101 21.5796C63.1053 20.6246 63.409 19.6421 64.1302 19.0372C64.7632 18.5063 65.326 17.86 65.8926 17.2094C66.9948 15.9439 68.1111 14.6621 69.7854 14.1812C71.9656 13.555 74.0877 13.4073 76.3998 13.61C76.9527 13.6585 77.3823 13.9302 77.8259 14.2108C78.061 14.3595 78.3001 14.5107 78.5635 14.6325C79.2022 14.9277 79.5567 15.3969 79.9235 15.8824C80.1397 16.1686 80.3602 16.4604 80.6457 16.7256C82.1046 18.0806 82.6817 20.4452 83.2087 22.6039C83.4231 23.4826 83.6293 24.3272 83.8832 25.0556C85.521 29.7544 86.6137 34.2277 86.9881 39.2281C87.3535 44.1077 87.8977 49.0584 88.6323 53.9479C88.9356 55.9661 89.2712 57.9738 89.6402 59.9618C89.6704 60.1247 89.6984 60.2884 89.7244 60.453C89.9536 61.9031 90.0244 63.4172 90.024 64.9432C90.7853 63.993 91.9768 62.8663 93.2446 61.8003C94.6128 60.6497 96.0699 59.5698 97.1707 58.8586C97.3993 58.7109 97.6313 58.5698 97.8663 58.4353C97.8663 58.4353 97.8663 58.4353 97.8663 58.4353C98.0594 58.3248 98.2546 58.2188 98.4517 58.1173C101.525 56.5349 105.06 56.0604 108.435 56.9316C111.642 57.7594 114.115 59.6117 116.481 61.8255C116.546 61.886 116.61 61.9468 116.673 62.0079C119.062 64.3099 120.642 67.0965 122.149 70.0871C122.447 69.6767 122.561 69.358 122.66 69.0815C122.815 68.6456 122.934 68.3144 123.677 67.8941C124.138 67.6328 124.594 67.3631 125.05 67.0937C126.505 66.2329 127.953 65.3762 129.561 64.8148C129.859 64.7106 130.164 64.6165 130.474 64.5344C132.111 64.1023 134.475 63.9904 136.186 64.5114C136.299 64.5459 136.409 64.5832 136.516 64.6233C137.388 64.9499 138.314 65.2011 139.244 65.4534C140.746 65.8607 142.258 66.2709 143.57 67.0054L145.075 67.8941L145.49 55.7188C145.49 54.3615 145.641 52.9914 145.791 51.6211C145.942 50.2508 146.092 48.8805 146.092 47.5229C146.092 44.1224 146.307 40.5942 147.063 37.2864C147.497 35.3859 147.899 33.2175 147.899 31.2649C147.899 30.3953 148.136 29.5409 148.371 28.6915C148.551 28.0425 148.73 27.3964 148.802 26.7488C148.984 25.1136 151.496 22.4496 152.85 21.6974C154.157 20.9715 155.885 21.2126 157.471 21.4338C158.191 21.5342 158.882 21.6305 159.49 21.6305C161.699 21.6305 165.026 23.4125 166.415 25.1096C166.705 25.4638 166.988 25.8047 167.264 26.1372C169.176 28.4395 170.749 30.3343 171.834 33.3724C172.33 34.7603 172.559 37.0259 172.587 38.4907C172.616 40.0498 172.879 41.5676 173.144 43.0912C173.26 43.7631 173.377 44.4361 173.473 45.1143C173.582 45.8753 173.39 46.7639 173.197 47.6553C173.051 48.3301 172.904 49.0065 172.888 49.6304C172.859 50.7463 172.881 51.8665 172.904 52.9869C172.934 54.48 172.964 55.9736 172.871 57.4584C172.44 64.3662 172.286 71.4577 172.286 78.383C172.286 81.5044 172.06 84.6129 171.834 87.7184C171.608 90.8175 171.383 93.9136 171.383 97.0162C171.383 99.8526 170.952 102.727 170.523 105.59C170.246 107.441 169.969 109.288 169.81 111.116C169.375 116.119 168.807 121.623 167.619 126.505C167.201 128.225 166.698 130.636 166.127 133.377C165.534 136.225 164.867 139.428 164.143 142.58ZM136.492 55.3816C136.514 53.645 136.696 51.9899 136.828 50.7922L136.845 50.6382C137.005 49.18 137.092 48.3035 137.092 47.5229C137.092 43.8057 137.319 39.5223 138.289 35.281C138.691 33.5206 138.899 32.1635 138.899 31.2649C138.899 29.2078 139.381 27.4438 139.597 26.6562L139.607 26.62C139.66 26.4249 139.7 26.2819 139.731 26.1675C139.787 25.9678 139.818 25.8558 139.855 25.7073C139.861 25.6793 139.867 25.6571 139.871 25.6404C140.13 23.512 140.977 21.8317 141.516 20.8936C142.142 19.8046 142.866 18.8431 143.53 18.0621C144.699 16.687 146.479 14.9412 148.479 13.83C151.988 11.8809 155.569 12.1685 157.027 12.3109C157.681 12.3748 158.407 12.4766 158.844 12.5378C158.946 12.5522 159.033 12.5643 159.099 12.5731C159.404 12.6142 159.543 12.6273 159.577 12.6308C162.676 12.6513 165.504 13.7692 167.369 14.7264C169.315 15.7249 171.643 17.2863 173.381 19.4105C173.61 19.6904 173.857 19.9852 174.118 20.2965C176.019 22.5621 178.651 25.6996 180.31 30.3454C181.303 33.1256 181.552 36.562 181.585 38.3209C181.602 39.2173 181.706 39.7897 181.885 40.7837C182.013 41.4955 182.18 42.4235 182.383 43.8415C182.578 45.2067 182.502 46.3974 182.409 47.2102C182.315 48.0256 182.164 48.7564 182.071 49.1964C182.024 49.4204 181.99 49.577 181.963 49.6985C181.926 49.8726 181.903 49.9747 181.88 50.0995C181.865 50.9141 181.881 51.7442 181.902 52.7763C181.905 52.9687 181.909 53.1682 181.913 53.3759C181.938 54.6984 181.96 56.3235 181.854 58.0198C181.437 64.6873 181.286 71.5824 181.286 78.383C181.286 81.8331 181.04 85.2166 180.82 88.233L180.811 88.3623C180.581 91.5201 180.383 94.2924 180.383 97.0162C180.383 100.04 180.007 102.942 179.655 105.365C179.567 105.973 179.481 106.545 179.4 107.088C179.132 108.882 178.909 110.371 178.777 111.896C178.341 116.9 177.73 123.017 176.364 128.632C175.959 130.299 175.517 132.427 174.99 134.964C174.515 137.252 173.971 139.874 173.322 142.791C172.126 148.166 170.569 154.537 168.686 158.938C167.606 161.883 166.038 165.158 163.444 168.19C161.362 170.623 158.695 172.065 157.534 172.693C157.454 172.736 157.381 172.775 157.316 172.81L157.315 172.811L157.28 172.83C157.13 172.912 156.955 173.011 156.758 173.122C155.396 173.889 152.958 175.262 150.166 176.027C146.648 176.99 143.131 177.797 139.792 178.562L139.734 178.576L139.72 178.579L139.707 178.582L139.453 178.64C139.201 178.698 138.921 178.764 138.615 178.837C137.18 179.178 135.202 179.647 133.22 179.909C133.237 179.906 133.196 179.911 133.068 179.941C132.922 179.975 132.741 180.022 132.426 180.107C132.379 180.119 132.328 180.133 132.272 180.149C131.715 180.301 130.687 180.583 129.592 180.766C125.211 181.501 120.357 182.103 115.466 182.108C113.13 182.111 110.854 182.24 108.301 182.385C107.464 182.432 106.596 182.481 105.688 182.528C102.193 182.709 98.2659 182.84 94.2173 182.485C93.8808 182.456 93.5062 182.425 93.1009 182.393C91.0352 182.227 88.1691 181.996 85.4587 181.453C82.1067 180.781 77.9336 179.46 74.3096 176.375C74.0991 176.196 73.8847 176.014 73.6666 175.829C71.1301 173.679 68.1152 171.123 65.363 167.645C58.3618 158.796 53.306 148.781 50.5669 137.833C50.2713 136.651 50.057 135.705 49.8742 134.899C49.5475 133.457 49.3213 132.459 48.9107 131.348C48.3959 129.956 48.1187 128.627 47.9738 127.932C47.9644 127.886 47.9555 127.844 47.9472 127.804C47.7962 127.085 47.7505 126.933 47.7478 126.924C47.3697 125.934 47.158 125.014 47.0396 124.458C46.9755 124.158 46.92 123.871 46.8785 123.655L46.8545 123.53C46.8284 123.394 46.8081 123.288 46.788 123.187C45.7797 121.322 45.4526 119.464 45.3381 118.813C45.1281 117.619 45.0118 116.312 45.0268 115.2C45.0267 115.199 45.0258 115.09 44.984 114.605C44.9805 114.564 44.9764 114.518 44.9718 114.467C44.9349 114.048 44.8682 113.294 44.8507 112.536C44.8087 110.721 44.9815 107.584 47.0453 104.48C48.2073 102.733 49.6398 101.582 50.5323 100.938C51.4556 100.271 52.3725 99.748 52.8468 99.4777L52.8703 99.4643C52.9827 99.4002 53.1094 99.3286 53.2482 99.2507C53.1109 98.2504 52.972 97.1062 52.9096 96.0494C52.8413 94.8935 52.8064 93.9751 52.7763 93.1845C52.7242 91.8134 52.6867 90.8264 52.5149 89.6506C52.2794 88.0388 52.1899 86.4816 52.132 85.2297C52.1134 84.8266 52.0981 84.4644 52.0841 84.1295C52.0494 83.3063 52.0217 82.6479 51.9675 81.9516C51.9433 81.6407 51.9138 81.2944 51.8817 80.9186C51.6834 78.5927 51.3888 75.1385 51.667 71.9651C51.6965 71.6293 51.6969 71.1439 51.6451 70.2064C51.6371 70.0622 51.6267 69.8919 51.615 69.7013C51.5664 68.9061 51.4962 67.7588 51.4928 66.6934C51.4863 64.658 51.3429 62.5368 51.1675 60.1211C51.0677 58.7451 51.1175 57.3497 51.1458 56.5554C51.1503 56.43 51.1543 56.3197 51.157 56.2267C51.1837 55.3201 51.1558 55.0795 51.1418 54.9956C50.8391 53.1913 50.7476 51.4974 50.6925 50.1968C50.6774 49.8394 50.6649 49.5183 50.6535 49.2235C50.6183 48.3158 50.5928 47.6575 50.5277 46.9547C50.2457 43.9113 50.5249 40.342 50.7074 38.0101C50.757 37.3757 50.7995 36.8329 50.8215 36.4171C50.8371 36.1222 50.8523 35.8152 50.8681 35.4973C51.0083 32.6665 51.1913 28.9687 52.1124 25.2069C52.1345 25.1165 52.1607 25.0041 52.1913 24.8724C52.4429 23.7908 52.9971 21.4077 54.1235 19.204C54.1461 19.1328 54.1745 19.0411 54.2177 18.9015L54.2216 18.8888C54.2774 18.7085 54.3619 18.435 54.4575 18.1481C54.4602 18.1398 54.463 18.1313 54.4659 18.1227C54.7775 17.1862 55.7215 14.3492 58.3353 12.151C58.3376 12.1483 58.4413 12.0519 58.719 11.7398C58.7571 11.6969 58.8283 11.6154 58.9212 11.5088C59.219 11.1675 59.7408 10.5694 60.1204 10.1618C61.3218 8.87191 63.6449 6.58109 67.3007 5.53099C70.7008 4.55433 73.9503 4.36067 77.1859 4.64439C79.6135 4.85725 81.3561 5.83072 82.1163 6.28312C82.3078 6.39707 82.4747 6.50212 82.5717 6.56338C82.6012 6.58196 82.6248 6.59689 82.6442 6.60916C84.8314 7.69844 86.122 9.20441 86.7498 9.99648C86.8921 10.176 87.0198 10.345 87.0883 10.4357L87.0898 10.4378C89.7927 13.1206 90.8577 16.4587 91.3497 18.157C91.5953 19.0049 91.8088 19.8812 91.9624 20.512C91.9887 20.6197 92.0132 20.7203 92.0358 20.8124C92.2239 21.5779 92.319 21.9135 92.3818 22.0934C94.208 27.3328 95.5163 32.5896 95.963 38.5561C96.2212 42.0044 96.5721 45.4816 97.019 48.9358C101.294 47.3646 106.036 47.0173 110.685 48.2173C116.055 49.6035 119.859 52.6606 122.63 55.2541C123.299 55.88 123.919 56.5249 124.496 57.1805C125.646 56.6551 126.897 56.1705 128.177 55.8325C130.314 55.2686 133.398 54.9107 136.492 55.3816ZM54.0673 19.3726C54.0673 19.3722 54.0705 19.3628 54.0772 19.3454C54.0706 19.3642 54.0673 19.3729 54.0673 19.3726Z" fill="white"></path><path d="M152.244 182.16C152.832 181.459 153.575 180.813 154.186 180.115C154.186 180.115 154.827 179.5 155.705 178.913C155.925 178.766 156.084 179.104 156.234 179.254C156.409 179.429 156.583 179.6 156.79 179.762C157.114 180.016 157.369 180.268 157.648 180.545C157.932 180.827 158.402 180.998 158.703 181.276C158.971 181.524 159.249 181.768 159.504 182.023C160.562 183.085 161.827 184.052 162.912 185.11C164.49 186.65 165.987 188.236 167.482 189.821L167.502 189.842C167.901 190.265 168.335 190.597 167.976 191.018C167.817 191.204 167.61 191.365 167.46 191.566C166.954 192.243 166.309 192.886 165.91 193.608C165.136 195.008 163.745 196.221 162.757 197.542C161.915 198.669 160.833 199.701 159.918 200.795C159.397 201.418 158.802 202.223 158.055 202.722C157.916 202.815 157.555 202.325 157.481 202.221C157.301 201.967 156.897 201.869 156.691 201.629C156.445 201.34 156.001 201.158 155.712 200.879C155.071 200.262 154.212 199.77 153.518 199.184C151.419 197.413 149.618 195.441 147.353 193.772C146.178 192.906 145.011 191.978 143.896 191.075C143.736 190.946 144.088 190.655 144.203 190.578C144.444 190.417 144.556 190.141 144.801 189.967C145.171 189.706 145.509 189.296 145.822 188.993C146.851 187.994 148.031 187.003 148.891 185.915C149.57 185.055 150.477 184.314 151.103 183.434C151.415 182.994 151.887 182.586 152.244 182.16Z" fill="#C4C4C4"></path><path d="M82.6369 195.361C83.8265 194.423 85.0019 193.424 86.1248 192.456L74.7122 179.54C74.4672 179.417 74.3224 179.757 74.1739 179.915C74.0002 180.099 73.8263 180.28 73.6175 180.454C73.2909 180.727 73.0379 180.993 72.7607 181.285C72.4784 181.582 71.9896 181.788 71.6897 182.083C71.4219 182.346 71.1429 182.605 70.8902 182.874C69.8394 183.991 68.5617 185.036 67.4824 186.152C65.9119 187.777 64.4323 189.439 62.9533 191.1L62.9339 191.122C62.5392 191.565 62.1011 191.924 62.5132 192.3C62.6955 192.466 62.9276 192.604 63.1014 192.784C63.6889 193.395 64.4215 193.96 64.8983 194.624C65.8221 195.909 67.3906 196.96 68.5364 198.151C69.5144 199.167 70.7396 200.07 71.7923 201.048C72.3919 201.605 73.0826 202.331 73.9134 202.748C74.0687 202.826 74.4176 202.322 74.489 202.215C74.6624 201.954 75.0857 201.824 75.2874 201.574C75.529 201.274 75.9884 201.059 76.2767 200.765C76.9152 200.113 77.7941 199.563 78.4908 198.937C80.5989 197.043 80.3452 197.17 82.6369 195.361Z" fill="#C4C4C4"></path><path d="M73.212 185.785C73.3702 181.56 74.5614 174.803 74.5614 174.803C74.5614 174.803 79.8308 175.817 83.1776 176.689C85.5808 177.316 88.6191 177.163 91.0263 177.73C93.459 178.303 96.5489 177.997 99.0742 178.091C103.896 178.272 108.669 178.181 113.45 178.36C116.218 178.464 118.91 178.089 121.659 178.13C124.544 178.173 127.34 177.621 130.19 177.643C134.931 177.68 139.537 175.722 144.194 175.748C146.098 175.758 153.111 172.416 154.276 173.766C154.98 174.581 154.909 176.435 155.215 177.445C155.975 179.949 156.243 182.569 156.664 185.146C157.23 188.604 157.101 192.056 156.97 195.54L156.964 195.701C156.888 197.749 156.911 199.792 156.492 201.807C156.232 203.062 156.304 206.066 155.22 207.017C154.116 207.985 152.128 207.562 151.11 208.207C149.885 208.984 147.372 209.109 145.885 209.475C141.342 210.595 136.371 209.984 131.756 210.977C125.796 212.26 119.278 211.914 113.14 211.684C109.007 211.529 104.931 211.108 100.797 210.953C97.2127 210.819 93.7634 209.953 90.2097 209.75C87.3626 209.588 84.7684 208.742 81.9995 208.159C79.7929 207.694 77.6035 207.246 75.3775 206.835C73.7714 206.539 74.1751 206.027 73.817 204.895C73.4972 203.884 73.5497 201.826 73.5883 200.794L73.7391 196.767C73.8759 193.111 73.0742 189.468 73.212 185.785Z" fill="#050038"></path><path fill-rule="evenodd" clip-rule="evenodd" d="M76.2626 165.965L74.5614 174.803L65.6981 173.24C66.1167 170.866 67.4708 168.758 69.4568 167.39C71.4429 166.023 73.8946 165.509 76.2626 165.965ZM143.407 166.757C140.438 166.839 137.664 167.416 135.708 167.822C135.602 167.844 135.499 167.866 135.399 167.886C132.92 168.4 131.516 168.653 130.26 168.643C128.405 168.629 126.625 168.793 125.316 168.913C125.248 168.92 125.181 168.926 125.115 168.932C123.642 169.067 122.684 169.144 121.792 169.131C120.18 169.107 118.607 169.196 117.387 169.265C117.276 169.271 117.168 169.277 117.063 169.283C115.686 169.359 114.703 169.401 113.786 169.367C111.274 169.273 108.785 169.249 106.434 169.227L106.362 169.227C103.948 169.204 101.675 169.182 99.4109 169.097C98.4354 169.061 97.054 169.074 96.0536 169.084C95.6373 169.088 95.287 169.091 95.0594 169.09C93.7982 169.084 93.2661 169.011 93.0907 168.97C91.2383 168.534 89.2921 168.378 88.1043 168.284C88.0083 168.276 87.9173 168.269 87.8317 168.262C86.3337 168.14 85.7633 168.063 85.4476 167.98C83.5507 167.486 81.2184 166.978 79.455 166.609C78.5532 166.421 77.7613 166.261 77.1937 166.148C76.9095 166.092 76.6804 166.046 76.5207 166.015L76.3346 165.979L76.2626 165.965C76.2623 165.965 76.2626 165.965 74.5614 174.803C65.6981 173.24 65.6981 173.24 65.6981 173.24L65.6926 173.272L65.6804 173.342C65.6702 173.401 65.6558 173.484 65.6377 173.59C65.6017 173.802 65.5511 174.103 65.4903 174.475C65.3691 175.218 65.2059 176.254 65.037 177.434C64.7126 179.698 64.3162 182.836 64.2184 185.449C64.1274 187.877 64.3394 190.205 64.496 191.924C64.5014 191.984 64.5068 192.043 64.5121 192.101C64.6873 194.029 64.7886 195.276 64.7454 196.431L64.5946 200.458C64.5735 201.022 64.5412 202.034 64.572 203.11C64.5934 203.859 64.6539 205.57 65.1374 207.28C65.163 207.423 65.22 207.729 65.3009 208.061C65.4084 208.502 65.6084 209.211 65.9897 210.019C66.9015 211.952 68.3714 213.456 70.1432 214.438C71.585 215.237 72.9678 215.543 73.7452 215.686C75.8626 216.077 77.9674 216.507 80.1437 216.965C80.4698 217.034 80.9206 217.144 81.4643 217.277C83.4753 217.767 86.7568 218.568 89.6974 218.736C90.9719 218.808 92.2736 219 94.0957 219.269L94.1796 219.281C95.9008 219.535 98.1137 219.859 100.461 219.947C102.356 220.018 104.263 220.151 106.339 220.297L106.404 220.301C108.414 220.442 110.59 220.595 112.803 220.678C113.225 220.694 113.657 220.711 114.099 220.728C119.692 220.949 126.881 221.232 133.65 219.776C135.085 219.467 136.682 219.385 139.267 219.264L139.359 219.26C141.639 219.153 144.83 219.004 148.039 218.213C148.037 218.214 148.038 218.214 148.042 218.213C148.067 218.208 148.211 218.178 148.6 218.115C148.677 218.103 148.772 218.087 148.881 218.07C149.24 218.013 149.744 217.933 150.19 217.852C150.807 217.741 151.643 217.575 152.523 217.316C153.006 217.174 153.644 216.965 154.35 216.651C154.839 216.588 155.786 216.455 156.826 216.145C157.987 215.799 159.611 215.137 161.155 213.783C163.127 212.053 163.978 209.986 164.349 208.908C164.763 207.707 164.961 206.575 165.07 205.827C165.172 205.133 165.239 204.445 165.28 204.026C165.285 203.982 165.289 203.941 165.292 203.903C165.317 203.657 165.332 203.526 165.338 203.474C165.831 201.001 165.896 198.416 165.936 196.817C165.943 196.521 165.95 196.259 165.958 196.038L165.964 195.878C165.964 195.878 165.964 195.877 165.964 195.878C165.968 195.777 165.972 195.675 165.975 195.572C166.1 192.277 166.259 188.05 165.546 183.693C165.487 183.327 165.422 182.888 165.349 182.394C165.067 180.474 164.662 177.72 163.935 175.195C163.927 175.139 163.919 175.077 163.908 174.993C163.902 174.952 163.896 174.905 163.889 174.852C163.864 174.669 163.829 174.412 163.786 174.136C163.706 173.625 163.555 172.758 163.25 171.806C162.96 170.897 162.365 169.363 161.089 167.885C158.846 165.286 155.999 164.693 154.686 164.531C153.246 164.354 151.975 164.486 151.185 164.6C149.573 164.834 147.941 165.317 146.835 165.662C146.247 165.845 145.662 166.036 145.16 166.201L145.114 166.216C144.574 166.393 144.141 166.534 143.757 166.652C143.617 166.695 143.502 166.73 143.407 166.757ZM143.082 166.846C143.012 166.862 143.024 166.856 143.103 166.841C143.095 166.843 143.088 166.844 143.082 166.846ZM163.958 175.349C163.962 175.372 163.964 175.385 163.964 175.385C163.964 175.386 163.962 175.374 163.958 175.349ZM156.97 195.54C157.101 192.056 157.23 188.604 156.664 185.146C156.564 184.529 156.471 183.91 156.379 183.29C156.086 181.321 155.793 179.349 155.215 177.445C155.109 177.092 155.048 176.637 154.983 176.159C154.864 175.267 154.734 174.296 154.276 173.766C153.55 172.924 150.554 173.905 147.938 174.761C146.355 175.279 144.912 175.752 144.195 175.748C141.882 175.735 139.582 176.211 137.272 176.689C134.93 177.174 132.577 177.662 130.19 177.643C128.793 177.632 127.41 177.759 126.023 177.886C124.579 178.019 123.13 178.152 121.659 178.13C120.382 178.111 119.117 178.182 117.852 178.253C116.393 178.334 114.932 178.416 113.45 178.36C111.064 178.271 108.681 178.249 106.293 178.227C103.894 178.204 101.491 178.182 99.0742 178.091C98.2874 178.062 97.4458 178.071 96.5863 178.081C94.6873 178.102 92.7011 178.125 91.0263 177.73C89.8673 177.457 88.5621 177.351 87.2519 177.244C85.9096 177.135 84.5621 177.026 83.3613 176.736C83.2997 176.721 83.2384 176.705 83.1776 176.689C79.8309 175.817 74.5614 174.803 74.5614 174.803C74.5614 174.803 73.702 179.678 73.3462 183.736C73.2831 184.455 73.2359 185.149 73.2121 185.785C73.143 187.63 73.3097 189.465 73.4761 191.297C73.6419 193.121 73.8074 194.943 73.7391 196.767L73.5883 200.794C73.5497 201.826 73.4972 203.884 73.817 204.895C73.9035 205.168 73.9455 205.406 73.9822 205.612C74.0974 206.262 74.1592 206.611 75.3775 206.835C77.6035 207.246 79.7929 207.694 81.9995 208.159C82.8036 208.328 83.593 208.52 84.3781 208.71C86.2965 209.176 88.1895 209.635 90.2098 209.75C91.8959 209.846 93.5586 210.092 95.2234 210.338C97.0672 210.61 98.9136 210.883 100.797 210.953C102.864 211.031 104.917 211.175 106.969 211.319C109.022 211.463 111.074 211.607 113.14 211.684C113.505 211.698 113.872 211.712 114.239 211.726C120.052 211.949 126.151 212.184 131.756 210.977C133.975 210.5 136.275 210.393 138.571 210.286C141.051 210.171 143.526 210.057 145.885 209.475C146.362 209.357 146.945 209.265 147.557 209.167C148.852 208.961 150.278 208.734 151.11 208.207C151.56 207.922 152.199 207.845 152.867 207.765C153.712 207.664 154.604 207.557 155.22 207.017C156.01 206.324 156.186 204.54 156.324 203.138C156.376 202.616 156.422 202.147 156.492 201.807C156.834 200.163 156.881 198.5 156.929 196.831C156.939 196.455 156.95 196.078 156.964 195.701L156.97 195.54Z" fill="white"></path><path d="M110.184 185.184C110.965 184.442 111.955 183.761 112.766 183.022C112.766 183.022 113.619 182.373 114.791 181.756C115.084 181.601 115.3 181.963 115.503 182.124C115.739 182.313 115.975 182.498 116.254 182.673C116.691 182.946 117.035 183.218 117.412 183.516C117.796 183.82 118.428 184.008 118.834 184.307C119.196 184.575 119.572 184.837 119.915 185.112C121.345 186.256 123.051 187.301 124.516 188.441C126.649 190.1 128.671 191.807 130.693 193.514L130.719 193.536C131.258 193.991 131.843 194.35 131.367 194.796C131.156 194.993 130.88 195.163 130.681 195.375C130.009 196.092 129.151 196.771 128.623 197.538C127.601 199.024 125.747 200.303 124.437 201.702C123.319 202.896 121.879 203.986 120.663 205.144C119.971 205.803 119.182 206.655 118.186 207.18C118 207.278 117.511 206.752 117.411 206.64C117.167 206.368 116.624 206.259 116.346 206C116.013 205.69 115.416 205.491 115.025 205.19C114.159 204.525 113.003 203.991 112.067 203.359C109.234 201.448 106.799 199.326 103.745 197.522C102.161 196.586 100.587 195.584 99.0826 194.61C98.8664 194.47 99.3361 194.163 99.4884 194.083C99.8098 193.913 99.9575 193.619 100.285 193.437C100.778 193.162 101.227 192.728 101.644 192.407C103.013 191.353 104.584 190.308 105.727 189.155C106.628 188.245 107.837 187.464 108.666 186.532C109.081 186.065 109.709 185.635 110.184 185.184Z" fill="#C4C4C4"></path><path d="M152.244 182.16C152.832 181.459 153.575 180.813 154.186 180.115C154.186 180.115 154.827 179.5 155.705 178.913C155.925 178.766 156.084 179.104 156.234 179.254C156.409 179.429 156.583 179.6 156.79 179.762C157.114 180.016 157.369 180.268 157.648 180.545C157.932 180.827 158.402 180.999 158.703 181.276C158.971 181.524 159.249 181.768 159.504 182.023C160.562 183.085 161.827 184.052 162.912 185.11C164.49 186.65 165.987 188.236 167.482 189.821L167.502 189.842C167.901 190.265 168.335 190.597 167.976 191.018C167.817 191.204 167.61 191.365 167.46 191.566C166.954 192.243 166.309 192.886 165.91 193.609C165.136 195.008 163.745 196.221 162.757 197.542C161.915 198.669 160.833 199.701 159.918 200.795C159.397 201.418 158.802 202.223 158.055 202.722C157.916 202.815 157.555 202.325 157.481 202.221C157.301 201.967 156.897 201.87 156.691 201.629C156.445 201.34 156.001 201.158 155.712 200.879C155.071 200.262 154.212 199.77 153.518 199.184C151.419 197.413 149.618 195.441 147.353 193.772C146.178 192.906 145.011 191.978 143.896 191.075C143.736 190.946 144.088 190.655 144.203 190.578C144.444 190.417 144.556 190.141 144.801 189.967C145.171 189.706 145.509 189.296 145.822 188.993C146.851 187.994 148.031 187.003 148.891 185.915C149.57 185.055 150.477 184.314 151.103 183.434C151.415 182.994 151.887 182.586 152.244 182.16Z" fill="#C4C4C4"></path><path d="M82.6368 195.361C83.8264 194.423 85.0018 193.424 86.1248 192.456L74.7121 179.54C74.4672 179.417 74.3224 179.757 74.1738 179.915C74.0001 180.099 73.8263 180.28 73.6175 180.454C73.2909 180.727 73.0379 180.993 72.7606 181.285C72.4783 181.582 71.9895 181.788 71.6896 182.083C71.4218 182.345 71.1429 182.605 70.8901 182.874C69.8394 183.991 68.5616 185.036 67.4824 186.152C65.9118 187.777 64.4322 189.439 62.9532 191.1L62.9338 191.122C62.5391 191.565 62.101 191.924 62.5132 192.3C62.6954 192.466 62.9275 192.604 63.1014 192.784C63.6889 193.395 64.4215 193.96 64.8982 194.624C65.822 195.909 67.3905 196.96 68.5364 198.151C69.5143 199.167 70.7395 200.07 71.7922 201.048C72.3918 201.605 73.0826 202.331 73.9134 202.748C74.0687 202.826 74.4176 202.322 74.489 202.215C74.6624 201.954 75.0856 201.824 75.2873 201.574C75.5289 201.274 75.9883 201.059 76.2766 200.765C76.9152 200.113 77.794 199.563 78.4908 198.937C80.5988 197.043 80.3451 197.17 82.6368 195.361Z" fill="#C4C4C4"></path><path fill-rule="evenodd" clip-rule="evenodd" d="M119.538 67.1284C121.632 66.4261 123.9 67.5547 124.602 69.6493C127.017 76.8505 127.178 84.4372 127.178 91.1335C127.178 91.5541 127.187 92.0063 127.197 92.4851C127.231 94.1236 127.27 96.0734 126.968 98.1348C127.091 98.1696 127.213 98.2105 127.335 98.2579C128.054 98.5376 128.683 98.7956 129.25 99.0281C131.657 100.015 132.941 100.542 135.229 100.316C137.424 100.099 139.359 99.8854 141.088 99.4492C142.794 99.0188 144.017 98.4354 144.883 97.6656C144.951 97.6053 145.017 97.547 145.08 97.4906C145.633 96.9995 146.036 96.6425 146.386 96.2692C146.565 96.0783 146.685 95.9284 146.765 95.8133C146.804 95.7575 146.83 95.7153 146.846 95.6862C146.862 95.6574 146.867 95.6436 146.867 95.6443C146.956 95.4198 147.028 95.077 147.106 94.2592C147.114 94.1725 147.123 94.0752 147.132 93.9688C147.193 93.2697 147.29 92.1776 147.558 91.1322C147.94 89.6458 147.793 87.6118 147.595 85.0674C147.34 81.7993 146.184 78.5801 144.357 75.1862C143.31 73.241 144.038 70.8153 145.984 69.7681C147.929 68.721 150.354 69.4491 151.402 71.3943C153.543 75.3733 155.201 79.6937 155.571 84.4461C155.582 84.5857 155.593 84.7321 155.606 84.8846C155.775 86.9936 156.039 90.2727 155.306 93.1239C155.212 93.4901 155.178 93.8583 155.109 94.5979C155.097 94.7261 155.084 94.8655 155.07 95.0179C154.987 95.8877 154.846 97.2215 154.306 98.5865C153.773 99.9337 152.933 100.982 152.221 101.741C151.601 102.403 150.905 103.019 150.39 103.475C150.323 103.534 150.259 103.59 150.199 103.644C148.029 105.574 145.457 106.597 143.045 107.206C140.656 107.809 138.15 108.066 136.016 108.277C131.579 108.716 128.311 107.336 125.759 106.259C125.295 106.063 124.854 105.877 124.435 105.714C124.268 105.649 124.108 105.574 123.956 105.49C121.439 108.806 117.267 112.055 111.679 112.538C111.508 112.553 111.326 112.569 111.134 112.587C109.244 112.761 106.403 113.022 103.679 112.384C103.431 112.955 103.14 113.518 102.8 114.035C102.769 114.082 102.699 114.21 102.501 114.749C102.485 114.791 102.468 114.838 102.45 114.889C102.286 115.34 101.999 116.134 101.58 116.883C101.464 117.091 101.335 117.327 101.196 117.582C100.734 118.432 100.157 119.491 99.5388 120.423C99.2925 120.795 99.0381 121.158 98.7773 121.512C104.825 122.34 110.148 125.548 114.537 129.413C116.528 131.166 118.398 133.034 120.12 135.24C121.463 136.958 122.396 138.828 123.152 140.345C123.292 140.625 123.426 140.893 123.555 141.146C124.67 143.327 125.494 145.882 126.06 147.942C126.645 150.072 125.393 152.273 123.263 152.858C121.132 153.444 118.931 152.191 118.346 150.061C117.833 148.194 117.179 146.249 116.431 144.786C116.241 144.413 116.066 144.066 115.902 143.741C115.15 142.245 114.624 141.199 113.816 140.165C112.48 138.455 110.985 136.944 109.25 135.417C103.844 130.656 98.1541 128.255 92.1343 129.759C91.6983 129.868 91.2611 129.901 90.8367 129.866C89.7078 130.85 88.3938 131.837 86.9496 132.534C86.8803 132.567 86.8153 132.598 86.7523 132.628C86.5925 132.705 86.4462 132.775 86.2795 132.858C86.0584 132.969 85.8665 133.071 85.7064 133.166C85.6541 133.197 85.6096 133.225 85.5724 133.249C84.377 134.817 82.177 135.298 80.4161 134.296C78.496 133.203 77.8252 130.761 78.9177 128.841C79.7117 127.446 81.0616 126.62 81.6234 126.287C82.2691 125.903 82.958 125.575 83.3392 125.393C83.3906 125.368 83.4364 125.346 83.4758 125.327C84.705 124.735 85.8047 123.662 87.3928 122.114C87.5832 121.928 87.7807 121.736 87.9862 121.536C89.9389 119.642 91.5996 117.921 92.8709 116.003C93.2809 115.384 93.6147 114.772 94.0286 114.013C94.2005 113.698 94.3863 113.357 94.5971 112.98C94.6827 112.827 94.7517 112.643 94.9913 111.991L94.9946 111.982C95.1876 111.456 95.5254 110.537 96.1155 109.639C96.2155 109.487 96.374 109.162 96.5419 108.675C96.0982 107.721 96.0291 106.595 96.4406 105.538C96.616 105.086 96.8643 104.685 97.1667 104.342C97.1676 103.559 97.1417 102.774 97.1132 101.908C97.096 101.385 97.0778 100.834 97.064 100.236C97.0329 98.8903 96.8197 97.6237 96.543 95.98C96.5121 95.7967 96.4805 95.6086 96.4482 95.4152C96.4383 95.3854 96.4218 95.3393 96.3974 95.2789C96.3751 95.2235 96.3498 95.1654 96.3222 95.1061C96.1124 95.1339 95.8561 95.1867 95.5382 95.2754C95.0996 95.3978 94.6336 95.5613 94.043 95.7755C93.9868 95.7959 93.9289 95.817 93.8694 95.8386C93.3536 96.0262 92.7252 96.2546 92.0959 96.4459C91.2381 96.7067 90.2943 97.1765 89.1302 97.8551C88.7945 98.0508 88.3927 98.2941 87.9596 98.5565C87.1276 99.0604 86.1798 99.6344 85.3614 100.076C83.9674 100.828 82.4013 101.521 80.9647 102.047C80.5094 102.214 80.0308 102.475 79.278 102.924C79.209 102.965 79.1364 103.009 79.0604 103.054C78.4063 103.446 77.5011 103.989 76.5192 104.416C74.4931 105.296 72.1369 104.368 71.2563 102.342C70.3758 100.315 71.3044 97.9592 73.3305 97.0787C73.8104 96.8701 74.2668 96.5979 75.0055 96.1573C75.063 96.123 75.1221 96.0878 75.1832 96.0514C75.9382 95.6016 76.9847 94.9856 78.2123 94.5358C79.3187 94.1303 80.532 93.5917 81.562 93.0358C82.2471 92.6661 82.8341 92.3086 83.5072 91.8986C83.976 91.613 84.4866 91.302 85.1012 90.9437C86.415 90.1779 88.0032 89.3286 89.7692 88.7918C90.1814 88.6665 90.6045 88.5129 91.157 88.3123C91.2088 88.2935 91.2617 88.2743 91.3159 88.2547C91.902 88.0422 92.625 87.7827 93.3879 87.5698C94.9245 87.141 96.9693 86.7958 99.2217 87.4248C100.484 87.7774 101.343 88.5582 101.799 89.0375C102.312 89.5769 102.718 90.1687 103.023 90.6836C103.586 91.6324 104.137 92.887 104.325 94.0157C104.359 94.2175 104.394 94.4248 104.43 94.6372C104.699 96.2213 105.016 98.0868 105.062 100.051C105.072 100.472 105.086 100.916 105.102 101.377C105.134 102.357 105.17 103.416 105.165 104.503C106.45 104.939 108.219 104.807 110.99 104.567C113.83 104.322 116.193 102.582 117.737 100.447C119.225 98.3885 119.211 96.3893 119.185 92.7501C119.182 92.2444 119.178 91.7071 119.178 91.1335C119.178 84.4115 118.971 78.0218 117.017 72.1925C116.315 70.098 117.443 67.8307 119.538 67.1284ZM89.3516 67.9413C91.5605 67.9078 93.3783 69.6712 93.4119 71.8801C93.4131 71.9627 93.4144 72.0458 93.4157 72.1294C93.4345 73.3415 93.4548 74.6545 93.4035 76.0015C93.3979 76.1498 93.4167 76.3786 93.5134 76.9686C93.5217 77.0189 93.5309 77.074 93.5409 77.1335C93.6247 77.6329 93.7598 78.4385 93.7841 79.2634C93.7906 79.4824 93.8333 79.7251 93.9541 80.4109L93.9638 80.4661C94.0644 81.0377 94.2398 82.0335 94.1821 83.1075C94.0636 85.3135 92.1792 87.0057 89.9733 86.8872C87.7673 86.7687 86.0751 84.8844 86.1936 82.6784C86.1936 82.6784 86.1943 82.6631 86.1929 82.6289C86.1914 82.5928 86.1877 82.5408 86.1798 82.4685C86.1626 82.3134 86.133 82.1263 86.0832 81.8435C86.0745 81.7939 86.0645 81.7387 86.0537 81.6785C85.9639 81.1817 85.8125 80.3434 85.7876 79.4992C85.7801 79.2467 85.737 78.9837 85.6316 78.3407C85.6274 78.3153 85.6231 78.2893 85.6188 78.2626C85.5232 77.6797 85.3698 76.7354 85.4093 75.6973C85.4522 74.5717 85.4351 73.4586 85.4158 72.1975C85.4148 72.1326 85.4138 72.0673 85.4128 72.0016C85.3793 69.7927 87.1427 67.9749 89.3516 67.9413Z" fill="#050038"></path><path fill-rule="evenodd" clip-rule="evenodd" d="M195.668 69.4741C196.894 71.3122 196.397 73.7957 194.559 75.0211C193.482 75.7389 192.36 76.3745 191.383 76.9279C191.231 77.0141 191.083 77.0983 190.938 77.1805C189.81 77.8231 188.857 78.3883 187.988 79.0333C186.214 80.3502 183.709 79.9798 182.392 78.2061C181.075 76.4323 181.446 73.9269 183.219 72.61C184.508 71.653 185.828 70.8844 186.98 70.2283C187.147 70.1335 187.309 70.0415 187.467 69.9515C188.46 69.3884 189.305 68.9092 190.121 68.3647C191.96 67.1393 194.443 67.636 195.668 69.4741Z" fill="#050038"></path><path fill-rule="evenodd" clip-rule="evenodd" d="M191.001 111.812C190.413 111.817 189.8 111.823 189.153 111.823C186.944 111.823 185.153 110.032 185.153 107.823C185.153 105.613 186.944 103.823 189.153 103.823C189.622 103.823 190.116 103.817 190.631 103.812C192.8 103.79 195.329 103.763 197.783 104.102C198.195 104.159 198.569 104.214 198.916 104.265C199.933 104.415 200.715 104.53 201.517 104.549C202.408 104.569 203.283 104.624 204.064 104.673C204.164 104.679 204.263 104.686 204.359 104.692C205.245 104.747 206.025 104.789 206.797 104.789C209.006 104.789 210.797 106.58 210.797 108.789C210.797 110.998 209.006 112.789 206.797 112.789C205.753 112.789 204.755 112.732 203.863 112.676C203.762 112.67 203.662 112.664 203.564 112.658C202.764 112.607 202.056 112.563 201.335 112.547C199.983 112.516 198.53 112.299 197.429 112.135C197.159 112.094 196.911 112.057 196.69 112.027C194.878 111.777 193.102 111.793 191.001 111.812Z" fill="#050038"></path><path fill-rule="evenodd" clip-rule="evenodd" d="M178.027 137.049C179.257 135.214 181.741 134.723 183.576 135.953C183.915 136.18 184.336 136.447 184.803 136.744C186.021 137.517 187.554 138.49 188.775 139.476C188.786 139.483 188.799 139.491 188.814 139.5C188.868 139.532 188.926 139.565 189.013 139.615L189.031 139.626C189.119 139.677 189.234 139.743 189.354 139.815C189.575 139.948 189.932 140.17 190.29 140.46C190.608 140.717 191.228 141.263 191.663 142.132C192.651 144.108 191.85 146.511 189.874 147.499C188.23 148.321 186.291 147.905 185.117 146.604C185.09 146.588 185.061 146.571 185.027 146.552C185.019 146.547 185.011 146.543 185.003 146.538C184.926 146.493 184.825 146.435 184.726 146.376C184.614 146.31 184.475 146.225 184.327 146.127C184.182 146.032 183.995 145.901 183.797 145.739C182.942 145.039 182.074 144.491 181.034 143.833C180.458 143.47 179.831 143.073 179.123 142.599C177.288 141.369 176.797 138.884 178.027 137.049Z" fill="#050038"></path><path fill-rule="evenodd" clip-rule="evenodd" d="M30.1641 58.8996C30.8627 56.8039 33.128 55.6712 35.2238 56.3698C37.3604 57.082 39.2338 58.6069 40.5275 59.7492C41.1423 60.292 41.7389 60.854 42.2552 61.3404C42.3219 61.4032 42.3873 61.4648 42.4512 61.5249C43.0438 62.0824 43.4941 62.4986 43.8679 62.806C45.5743 64.209 45.8202 66.7297 44.4172 68.4361C43.0141 70.1425 40.4934 70.3884 38.787 68.9854C38.1752 68.4823 37.5368 67.8853 36.9697 67.3518C36.9024 67.2886 36.8357 67.2257 36.7694 67.1633C36.2429 66.6676 35.7441 66.1979 35.2324 65.746C33.9854 64.6449 33.1602 64.1147 32.6939 63.9593C30.5982 63.2607 29.4655 60.9954 30.1641 58.8996Z" fill="#050038"></path><path fill-rule="evenodd" clip-rule="evenodd" d="M13.4523 99.3057C13.4523 97.0965 15.2431 95.3057 17.4523 95.3057C19.2649 95.3057 21.1993 95.7369 22.5206 96.0315C22.7404 96.0806 22.9433 96.1258 23.1258 96.1646C25.1523 96.5958 27.2598 96.7839 29.6223 96.9654C29.819 96.9805 30.0178 96.9955 30.2186 97.0108C32.3508 97.1725 34.7054 97.351 37.0497 97.7587C39.2261 98.1373 40.6837 100.208 40.3051 102.385C39.9266 104.561 37.8554 106.019 35.6789 105.64C33.7341 105.302 31.7574 105.151 29.5539 104.983C29.374 104.97 29.1926 104.956 29.0096 104.942C26.6624 104.762 24.0687 104.544 21.4609 103.989C21.154 103.924 20.867 103.862 20.597 103.803C19.238 103.507 18.3108 103.306 17.4523 103.306C15.2431 103.306 13.4523 101.515 13.4523 99.3057Z" fill="#050038"></path><path fill-rule="evenodd" clip-rule="evenodd" d="M43.5708 138.02C44.4605 140.042 43.5425 142.402 41.5205 143.292C39.5261 144.17 37.4104 145.026 35.1841 145.692C35.164 145.708 35.1426 145.724 35.1209 145.74C34.9414 145.876 34.5473 146.171 34.0439 146.423C33.507 146.692 32.7246 146.976 31.756 146.976C29.5468 146.976 27.756 145.185 27.756 142.976C27.756 141.183 28.9351 139.666 30.5601 139.158C30.6562 139.086 30.7846 138.991 30.9311 138.893C31.2492 138.679 31.8027 138.341 32.5387 138.131C34.4258 137.592 36.3145 136.843 38.2986 135.97C40.3206 135.08 42.6811 135.998 43.5708 138.02ZM30.2469 139.395C30.247 139.395 30.2498 139.393 30.2551 139.389C30.2495 139.393 30.2469 139.395 30.2469 139.395Z" fill="#050038"></path></svg>